# xmcd CD database file
#
# Track frame offsets:
#	150
#	16469
#	26675
#	31524
#	42916
#	52456
#	57899
#	67712
#	77011
#	87022
#	97134
#	107945
#	118609
#	127232
#	137254
#	142980
#
# Disc length: 2035 seconds
#
# Revision: 0
# Processed by: cddbd v1.5.2PL0 Copyright (c) Steve Scherf et al.
# Submitted via: CDex 1.75
#
DISCID=d507f110
DTITLE=Curly King and The Tennessee Hilltopers - WCYB Radio 1949 Vol II
DYEAR=1989
DGENRE=Country
TTITLE0=Curly King and The Tennessee Hilltopers - Rodking Alone In An Old Rodking Chair
TTITLE1=Curly King and The Tennessee Hilltopers - You Have No One  Love 
TTITLE2=Curly King and The Tennessee Hilltopers - Boil Them Cabage Down
TTITLE3=Curly King and The Tennessee Hilltopers - Bible On The Table
TTITLE4=Curly King and The Tennessee Hilltopers - Broken Marriage Vows
TTITLE5=Curly King and The Tennessee Hilltopers - Floped Eared Mule
TTITLE6=Curly King and The Tennessee Hilltopers - Tennessee Moon
TTITLE7=Curly King and The Tennessee Hilltopers - When I Am Gone You'll Forget
TTITLE8=Curly King and The Tennessee Hilltopers - You Can't Conceal A Broken Heart
TTITLE9=Curly King and The Tennessee Hilltopers - I Am Sorry That's All I Can Say
TTITLE10=Curly King and The Tennessee Hilltopers - Black Mountain Blues
TTITLE11=Curly King and The Tennessee Hilltopers - I Just Received Word Mama's Dying Tonight
TTITLE12=Curly King and The Tennessee Hilltopers - Ruby
TTITLE13=Curly King and The Tennessee Hilltopers - Chained To A Memory
TTITLE14=Curly King and The Tennessee Hilltopers - Old Joe Clark
TTITLE15=Curly King and The Tennessee Hilltopers - Petal From A Faded Rose - Lets Say Good Bye Like We Said Hello
EXTD=YEAR: 1989
EXTT0=
EXTT1=
EXTT2=
EXTT3=
EXTT4=
EXTT5=
EXTT6=
EXTT7=
EXTT8=
EXTT9=
EXTT10=
EXTT11=
EXTT12=
EXTT13=
EXTT14=
EXTT15=
PLAYORDER=
